<?xml version="1.0" standalone="no"?>
<!DOCTYPE svg PUBLIC "-//W3C//DTD SVG 20010904//EN"
 "http://www.w3.org/TR/2001/REC-SVG-20010904/DTD/svg10.dtd">
<svg version="1.0" xmlns="http://www.w3.org/2000/svg"
 width="100.000000pt" height="100.000000pt" viewBox="0 0 100.000000 100.000000"
 preserveAspectRatio="xMidYMid meet">

<g transform="translate(0.000000,100.000000) scale(0.100000,-0.100000)"
fill="#000000" stroke="none">
<path d="M384 930 c-152 -40 -256 -115 -313 -227 -123 -244 -4 -546 247 -623
163 -51 325 -4 459 133 l58 58 -28 25 c-34 29 -46 25 -132 -54 -69 -63 -99
-77 -177 -87 -202 -25 -350 198 -297 447 32 150 120 232 249 233 99 0 154 -31
202 -115 20 -36 36 -69 34 -75 -1 -5 -13 -12 -27 -15 -14 -3 -24 -13 -24 -23
0 -22 185 -189 205 -185 11 2 20 34 34 120 22 135 19 153 -24 144 -26 -5 -30
-3 -30 17 -1 37 -35 101 -70 130 -47 40 -117 73 -201 97 -87 24 -76 24 -165 0z"/>
</g>
</svg>
